# Created by Kenney (www.kenney.nl)

mtllib bush2.mtl

g leafs_round

v -0.5 0.3 -0.2886751
v -0.375 0.5 -0.2165064
v -0.5 0.3 0.2886751
v -0.375 0.5 0.2165064
v 0.5 0.3 -0.2886751
v 0.5 0.3 0.2886751
v 0.375 0.5 -0.2165064
v 0.375 0.5 0.2165064
v -7.219114E-16 0.3 0.5773503
v 0 0.5 0.4330127
v 0.5 0.1 0.2886751
v 0.5 0.1 -0.2886751
v 0.375 0 0.2165064
v 0.375 0 -0.2165064
v 0 0 -0.4330127
v -7.219114E-16 0.1 -0.5773503
v -0.375 0 -0.2165064
v -0.5 0.1 -0.2886751
v -0.375 0 0.2165064
v -0.5 0.1 0.2886751
v -7.219114E-16 0.3 -0.5773503
v 0 0.5 -0.4330127
v 0 0 0.4330127
v -7.219114E-16 0.1 0.5773503

vn -0.8479983 0.529999 0
vn 0.8479983 0.529999 0
vn 0.4239992 0.529999 0.7343881
vn 0.6246951 -0.7808689 0
vn -0.3123475 -0.7808688 -0.5410017
vn -0.6246951 -0.7808689 0
vn -0.4239992 0.529999 -0.7343881
vn 0.3123475 -0.7808688 -0.5410017
vn -0.3123475 -0.7808688 0.5410017
vn 0.4239992 0.529999 -0.7343881
vn -0.4239992 0.529999 0.7343881
vn 0.5 0 0.8660254
vn 0.5 0 -0.8660254
vn -0.5 0 -0.8660254
vn -1 0 0
vn 1 0 0
vn -0.5 0 0.8660254
vn 0 1 0
vn 0 -1 0
vn 0.3123475 -0.7808688 0.5410017

vt -0.2886751 0.3
vt -0.2165064 0.5
vt 0.2886751 0.3
vt 0.2165064 0.5
vt 0.5 0.3
vt -7.219114E-16 0.3
vt 0.375 0.5
vt 0 0.5
vt -0.5 -0.2886751
vt -0.5 0.2886751
vt -0.375 -0.2165064
vt -0.375 0.2165064
vt 0 0.4330127
vt 7.219114E-16 0.5773503
vt 0.375 0.2165064
vt 0.5 0.2886751
vt 0.375 -0.2165064
vt 0.5 -0.2886751
vt 7.219114E-16 0.3
vt 0 -0.4330127
vt 7.219114E-16 -0.5773503
vt -0.5 0.3
vt -0.375 0.5
vt 0.5 0.1
vt -7.219114E-16 0.1
vt 7.219114E-16 0.1
vt -0.5 0.1
vt -0.2886751 0.1
vt 0.2886751 0.1

usemtl foliage(Clone)

f 3/3/1 2/2/1 1/1/1
f 2/2/1 3/3/1 4/4/1
f 7/4/2 6/1/2 5/3/2
f 6/1/2 7/4/2 8/2/2
f 8/7/3 9/6/3 6/5/3
f 9/6/3 8/7/3 10/8/3
f 13/11/4 12/10/4 11/9/4
f 12/10/4 13/11/4 14/12/4
f 17/15/5 16/14/5 15/13/5
f 16/14/5 17/15/5 18/16/5
f 20/18/6 17/15/6 19/17/6
f 17/15/6 20/18/6 18/16/6
f 2/7/7 21/19/7 1/5/7
f 21/19/7 2/7/7 22/8/7
f 14/12/8 16/14/8 12/10/8
f 16/14/8 14/12/8 15/13/8
f 24/21/9 19/17/9 23/20/9
f 19/17/9 24/21/9 20/18/9
f 22/8/10 5/22/10 21/19/10
f 5/22/10 22/8/10 7/23/10
f 10/8/11 3/22/11 9/6/11
f 3/22/11 10/8/11 4/23/11
f 6/5/12 24/25/12 11/24/12
f 24/25/12 6/5/12 9/6/12
f 21/19/13 12/27/13 16/26/13
f 12/27/13 21/19/13 5/22/13
f 1/5/14 16/26/14 18/24/14
f 16/26/14 1/5/14 21/19/14
f 20/29/15 1/1/15 18/28/15
f 1/1/15 20/29/15 3/3/15
f 6/1/16 12/29/16 5/3/16
f 12/29/16 6/1/16 11/28/16
f 9/6/17 20/27/17 24/25/17
f 20/27/17 9/6/17 3/22/17
f 22/20/18 8/12/18 7/11/18
f 8/12/18 22/20/18 10/13/18
f 10/13/18 22/20/18 2/17/18
f 10/13/18 2/17/18 4/15/18
f 23/20/19 14/12/19 13/11/19
f 14/12/19 23/20/19 15/13/19
f 15/13/19 23/20/19 19/17/19
f 15/13/19 19/17/19 17/15/19
f 24/21/20 13/11/20 11/9/20
f 13/11/20 24/21/20 23/20/20

