# Created by Kenney (www.kenney.nl)

mtllib Crosswalk.mtl

g block

v -0.35 0 0.5
v -0.35 0 -0.5
v -0.45 0 0.5
v -0.45 0 -0.5
v -0.45 0.01 -0.5
v -0.45 0.01 0.5
v -0.35 0.01 -0.5
v -0.35 0.01 0.5

vn 0 -0.01 0
vn -0.1 0 0
vn 0 0 -1
vn 0 0 1
vn 0.1 0 0
vn 0 0.01 0

vt 0.35 -0.5
vt 0.35 0.5
vt 0.45 -0.5
vt 0.45 0.5
vt -0.5 0
vt -0.5 0.01
vt 0.5 0
vt 0.5 0.01
vt 0.45 0
vt 0.35 0
vt 0.45 0.01
vt 0.35 0.01
vt -0.35 0
vt -0.45 0
vt -0.35 0.01
vt -0.45 0.01

usemtl _defaultMat(Clone)

f 3/3/1 2/2/1 1/1/1
f 2/2/1 3/3/1 4/4/1
f 3/7/2 5/6/2 4/5/2
f 5/6/2 3/7/2 6/8/2
f 5/11/3 2/10/3 4/9/3
f 2/10/3 5/11/3 7/12/3
f 8/15/4 3/14/4 1/13/4
f 3/14/4 8/15/4 6/16/4
f 8/6/5 2/7/5 7/8/5
f 2/7/5 8/6/5 1/5/5
f 5/3/6 8/2/6 7/1/6
f 8/2/6 5/3/6 6/4/6

g block

v -0.15 0 0.5
v -0.15 0 -0.5
v -0.25 0 0.5
v -0.25 0 -0.5
v -0.25 0.01 -0.5
v -0.25 0.01 0.5
v -0.15 0.01 -0.5
v -0.15 0.01 0.5


vt 0.15 -0.5
vt 0.15 0.5
vt 0.25 -0.5
vt 0.25 0.5
vt 0.25 0
vt 0.15 0
vt 0.25 0.01
vt 0.15 0.01
vt -0.15 0
vt -0.25 0
vt -0.15 0.01
vt -0.25 0.01

usemtl _defaultMat(Clone)

f 11/19/1 10/18/1 9/17/1
f 10/18/1 11/19/1 12/20/1
f 11/7/2 13/6/2 12/5/2
f 13/6/2 11/7/2 14/8/2
f 13/23/3 10/22/3 12/21/3
f 10/22/3 13/23/3 15/24/3
f 16/27/4 11/26/4 9/25/4
f 11/26/4 16/27/4 14/28/4
f 16/6/5 10/7/5 15/8/5
f 10/7/5 16/6/5 9/5/5
f 13/19/6 16/18/6 15/17/6
f 16/18/6 13/19/6 14/20/6

g block

v 0.05 0 0.5
v 0.05 0 -0.5
v -0.05 0 0.5
v -0.05 0 -0.5
v -0.05 0.01 -0.5
v -0.05 0.01 0.5
v 0.05 0.01 -0.5
v 0.05 0.01 0.5


vt -0.05 -0.5
vt -0.05 0.5
vt 0.05 -0.5
vt 0.05 0.5
vt 0.05 0
vt -0.05 0
vt 0.05 0.01
vt -0.05 0.01

usemtl _defaultMat(Clone)

f 19/31/1 18/30/1 17/29/1
f 18/30/1 19/31/1 20/32/1
f 19/7/2 21/6/2 20/5/2
f 21/6/2 19/7/2 22/8/2
f 21/35/3 18/34/3 20/33/3
f 18/34/3 21/35/3 23/36/3
f 24/35/4 19/34/4 17/33/4
f 19/34/4 24/35/4 22/36/4
f 24/6/5 18/7/5 23/8/5
f 18/7/5 24/6/5 17/5/5
f 21/31/6 24/30/6 23/29/6
f 24/30/6 21/31/6 22/32/6

g block

v 0.25 0 0.5
v 0.25 0 -0.5
v 0.15 0 0.5
v 0.15 0 -0.5
v 0.15 0.01 -0.5
v 0.15 0.01 0.5
v 0.25 0.01 -0.5
v 0.25 0.01 0.5


vt -0.25 -0.5
vt -0.25 0.5
vt -0.15 -0.5
vt -0.15 0.5

usemtl _defaultMat(Clone)

f 27/39/1 26/38/1 25/37/1
f 26/38/1 27/39/1 28/40/1
f 27/7/2 29/6/2 28/5/2
f 29/6/2 27/7/2 30/8/2
f 29/27/3 26/26/3 28/25/3
f 26/26/3 29/27/3 31/28/3
f 32/23/4 27/22/4 25/21/4
f 27/22/4 32/23/4 30/24/4
f 32/6/5 26/7/5 31/8/5
f 26/7/5 32/6/5 25/5/5
f 29/39/6 32/38/6 31/37/6
f 32/38/6 29/39/6 30/40/6

g block

v 0.45 0 0.5
v 0.45 0 -0.5
v 0.35 0 0.5
v 0.35 0 -0.5
v 0.35 0.01 -0.5
v 0.35 0.01 0.5
v 0.45 0.01 -0.5
v 0.45 0.01 0.5


vt -0.45 -0.5
vt -0.45 0.5
vt -0.35 -0.5
vt -0.35 0.5

usemtl _defaultMat(Clone)

f 35/43/1 34/42/1 33/41/1
f 34/42/1 35/43/1 36/44/1
f 35/7/2 37/6/2 36/5/2
f 37/6/2 35/7/2 38/8/2
f 37/15/3 34/14/3 36/13/3
f 34/14/3 37/15/3 39/16/3
f 40/11/4 35/10/4 33/9/4
f 35/10/4 40/11/4 38/12/4
f 40/6/5 34/7/5 39/8/5
f 34/7/5 40/6/5 33/5/5
f 37/43/6 40/42/6 39/41/6
f 40/42/6 37/43/6 38/44/6

