# Created by Kenney (www.kenney.nl)

mtllib tree3.mtl

g trunk_base

v 0.181066 0.5 0.925
v 0.181066 0.5 1.075
v 0.075 0.5 0.818934
v 0.07499999 0.5 1.181066
v -0.075 0.5 0.818934
v -0.075 0.5 1.181066
v -0.181066 0.5 0.925
v -0.181066 0.5 1.075
v 0.3639427 6.8742E-17 1.15075
v 0.15075 6.8742E-17 1.363943
v 0.2457066 0.15 1.101775
v 0.101775 0.15 1.245707
v -0.101775 0.15 1.245707
v -0.15075 6.8742E-17 1.363943
v -0.2457066 0.15 1.101775
v -0.3639427 6.8742E-17 1.15075
v -0.15075 6.8742E-17 0.6360573
v 0.15075 6.8742E-17 0.6360573
v -0.101775 0.15 0.7542934
v 0.101775 0.15 0.7542934
v 0.3639427 6.8742E-17 0.84925
v 0.2457066 0.15 0.898225
v -0.2457066 0.15 0.898225
v -0.3639427 6.8742E-17 0.84925

vn 0 1 0
vn 0.5553287 0.6190476 0.5553288
vn -0.5553288 0.6190476 0.5553287
vn 0 0.6190476 -0.7853535
vn 0.5553288 0.6190476 -0.5553287
vn -0.5553287 0.6190475 -0.5553287
vn 0 0.6190476 0.7853535
vn 0.7853535 0.6190476 0
vn -0.7853535 0.6190476 0
vn -0.6953472 0.1816159 -0.6953473
vn 0 0.1816159 -0.9833695
vn 0.6953473 0.1816159 -0.6953472
vn 0 0.1816159 0.9833695
vn 0.6953472 0.1816159 0.6953473
vn -0.6953473 0.1816159 0.6953472
vn 0.9833695 0.1816159 0
vn -0.9833695 0.1816159 0
vn 0 -1 0

vt -0.181066 0.925
vt -0.181066 1.075
vt -0.075 0.818934
vt -0.07499999 1.181066
vt 0.075 0.818934
vt 0.075 1.181066
vt 0.181066 0.925
vt 0.181066 1.075
vt -0.3639427 1.15075
vt -0.15075 1.363943
vt -0.2457066 1.101775
vt -0.101775 1.245707
vt 0.101775 1.245707
vt 0.15075 1.363943
vt 0.2457066 1.101775
vt 0.3639427 1.15075
vt 0.15075 6.8742E-17
vt -0.15075 6.8742E-17
vt 0.101775 0.15
vt -0.101775 0.15
vt -0.3639427 0.84925
vt -0.2457066 0.898225
vt -0.15075 0.6360573
vt -0.101775 0.7542934
vt 0.101775 0.7542934
vt 0.2457066 0.898225
vt 0.15075 0.6360573
vt 0.3639427 0.84925
vt 0.15075 6.8742E-17
vt -0.15075 6.8742E-17
vt 0.101775 0.15
vt -0.101775 0.15
vt -0.84925 6.8742E-17
vt -1.15075 6.8742E-17
vt -0.898225 0.15
vt -1.101775 0.15
vt 0.84925 6.8742E-17
vt 0.898225 0.15
vt 1.15075 6.8742E-17
vt 1.101775 0.15
vt 0.2457066 0.15
vt 0.181066 0.5
vt 0.818934 0.5
vt 0.925 0.5
vt 0.7542934 0.15
vt 0.075 0.5
vt -0.075 0.5
vt -0.2457066 0.15
vt -0.925 0.5
vt -0.818934 0.5
vt 0.07499999 0.5
vt 0.181066 0.5
vt -0.181066 0.5
vt -1.075 0.5
vt 1.075 0.5
vt -0.3639427 -0.84925
vt -0.15075 -0.6360573
vt -0.3639427 -1.15075
vt -0.15075 -1.363943
vt 0.15075 -0.6360573
vt 0.15075 -1.363943
vt 0.3639427 -0.84925
vt 0.3639427 -1.15075

usemtl wood(Clone)

f 3/3/1 2/2/1 1/1/1
f 2/2/1 3/3/1 4/4/1
f 4/4/1 3/3/1 5/5/1
f 4/4/1 5/5/1 6/6/1
f 6/6/1 5/5/1 7/7/1
f 6/6/1 7/7/1 8/8/1
f 11/11/2 10/10/2 9/9/2
f 10/10/2 11/11/2 12/12/2
f 15/15/3 14/14/3 13/13/3
f 14/14/3 15/15/3 16/16/3
f 19/19/4 18/18/4 17/17/4
f 18/18/4 19/19/4 20/20/4
f 18/23/5 22/22/5 21/21/5
f 22/22/5 18/23/5 20/24/5
f 17/27/6 23/26/6 19/25/6
f 23/26/6 17/27/6 24/28/6
f 12/31/7 14/30/7 10/29/7
f 14/30/7 12/31/7 13/32/7
f 22/35/8 9/34/8 21/33/8
f 9/34/8 22/35/8 11/36/8
f 16/39/9 23/38/9 24/37/9
f 23/38/9 16/39/9 15/40/9
f 7/42/10 19/19/10 23/41/10
f 19/45/10 7/44/10 5/43/10
f 5/46/11 20/20/11 19/19/11
f 20/20/11 5/46/11 3/47/11
f 3/47/12 22/48/12 20/20/12
f 22/35/12 3/50/12 1/49/12
f 4/51/13 13/32/13 12/31/13
f 13/32/13 4/51/13 6/47/13
f 2/52/14 12/31/14 11/41/14
f 12/31/14 2/52/14 4/51/14
f 15/48/15 6/47/15 8/53/15
f 6/47/15 15/48/15 13/32/15
f 1/49/16 11/36/16 22/35/16
f 11/36/16 1/49/16 2/54/16
f 15/40/17 7/44/17 23/38/17
f 7/44/17 15/40/17 8/55/17
f 9/58/18 18/57/18 21/56/18
f 18/57/18 9/58/18 10/59/18
f 18/57/18 10/59/18 17/60/18
f 17/60/18 10/59/18 14/61/18
f 17/60/18 14/61/18 24/62/18
f 24/62/18 14/61/18 16/63/18

g trunk

v 0.181066 1 0.925
v 0.181066 1 1.075
v 0.075 1 0.818934
v 0.07499999 1 1.181066
v -0.075 1 0.818934
v -0.075 1 1.181066
v -0.181066 1 0.925
v -0.181066 1 1.075

vn -0.7071068 0 -0.7071068
vn 1 0 0
vn -0.7071068 0 0.7071067
vn 0 0 1
vn 0 0 -1
vn 0.7071067 0 0.7071068
vn 0.7071068 0 -0.7071067
vn -1 0 0

vt -0.181066 -0.925
vt -0.075 -0.818934
vt -0.181066 -1.075
vt -0.07499999 -1.181066
vt 0.075 -0.818934
vt 0.075 -1.181066
vt 0.181066 -0.925
vt 0.181066 -1.075
vt 0.925 1
vt 0.818934 1
vt -0.925 1
vt -1.075 1
vt -0.181066 1
vt -0.075 1
vt 0.07499999 1
vt 0.075 1
vt 0.181066 1
vt -0.818934 1
vt 1.075 1

usemtl wood(Clone)

f 2/66/18 3/65/18 1/64/18
f 3/65/18 2/66/18 4/67/18
f 3/65/18 4/67/18 5/68/18
f 5/68/18 4/67/18 6/69/18
f 5/68/18 6/69/18 7/70/18
f 7/70/18 6/69/18 8/71/18
f 27/3/1 26/2/1 25/1/1
f 26/2/1 27/3/1 28/4/1
f 28/4/1 27/3/1 29/5/1
f 28/4/1 29/5/1 30/6/1
f 30/6/1 29/5/1 31/7/1
f 30/6/1 31/7/1 32/8/1
f 31/72/19 5/43/19 7/44/19
f 5/43/19 31/72/19 29/73/19
f 26/75/20 1/49/20 25/74/20
f 1/49/20 26/75/20 2/54/20
f 6/47/21 32/76/21 8/53/21
f 32/76/21 6/47/21 30/77/21
f 28/78/22 6/47/22 4/51/22
f 6/47/22 28/78/22 30/77/22
f 29/79/23 3/47/23 5/46/23
f 3/47/23 29/79/23 27/77/23
f 26/80/24 4/51/24 2/52/24
f 4/51/24 26/80/24 28/78/24
f 25/74/25 3/50/25 27/81/25
f 3/50/25 25/74/25 1/49/25
f 8/55/26 31/72/26 7/44/26
f 31/72/26 8/55/26 32/82/26

g leafs_pineA

v 1.443823E-15 1 2.154701
v -0.2679492 1 2
v 1.443823E-15 1.15 2.154701
v -1 1 1.57735
v -1 1.15 1.57735
v 1 1.15 0.4226497
v 1 1.15 1.57735
v 0.25 1.75 0.8556625
v 0.25 1.75 1.144338
v 1.443823E-15 1.15 -0.1547005
v 5.775291E-15 1.75 0.7113249
v -1 1 0.4226497
v -1 1.15 0.4226497
v 1 1 1.57735
v 0.2679492 1 2
v 1 1 0.4226497
v -0.25 1.75 0.8556625
v -0.25 1.75 1.144338
v 1.443823E-15 1 -0.1547005
v 0.2679492 1 0
v 5.775291E-15 1.75 1.288675
v -0.2679492 1 0

vn -1 0 1.732051
vn 1.459074 1.025912 0
vn 0.7295371 1.025912 -1.263595
vn -2 0 0
vn 1 0 1.732051
vn 2 0 0
vn -1.459074 1.025912 0
vn 1 0 -1.732051
vn -0.7295371 1.025912 1.263595
vn 0.7295371 1.025912 1.263595
vn -0.7295371 1.025912 -1.263595
vn 0 1.5 0
vn -1 0 -1.732051
vn 0 -1.5 0

vt 6.468326E-16 3.1
vt -0.1200412 3.1
vt 6.468326E-16 3.25
vt -0.448 3.1
vt -0.448 3.25
vt -0.7413471 3.25
vt -1.258653 3.25
vt -0.9353368 3.85
vt -1.064663 3.85
vt -0.112 3.85
vt -6.468326E-16 3.25
vt -2.587331E-15 3.85
vt 0.7413471 3.1
vt 0.7413471 3.25
vt 1.258653 3.1
vt 1.258653 3.25
vt 0.448 3.1
vt 0.1200412 3.1
vt 0.448 3.25
vt -0.7413471 3.1
vt -1.258653 3.1
vt 0.9353368 3.85
vt 1.064663 3.85
vt -6.468326E-16 3.1
vt 2.587331E-15 3.85
vt 0.112 3.85
vt -0.112 0.9353368
vt -0.112 1.064663
vt -2.587331E-15 0.8706735
vt -2.587331E-15 1.129326
vt 0.112 0.9353368
vt 0.112 1.064663
vt -0.448 -1.258653
vt -0.448 -0.7413471
vt -0.1200412 -1.448
vt -0.1200412 -0.552
vt -6.468326E-16 -0.4826941
vt -6.468326E-16 -1.517306
vt 0.1200412 -1.448
vt 0.1200412 -0.552
vt 0.448 -1.258653
vt 0.448 -0.7413471

usemtl foliage(Clone)

f 35/85/27 34/84/27 33/83/27
f 34/84/27 35/85/27 36/86/27
f 36/86/27 35/85/27 37/87/27
f 40/90/28 39/89/28 38/88/28
f 39/89/28 40/90/28 41/91/28
f 42/93/29 40/92/29 38/87/29
f 40/92/29 42/93/29 43/94/29
f 36/97/30 45/96/30 44/95/30
f 45/96/30 36/97/30 37/98/30
f 39/101/31 47/100/31 46/99/31
f 47/100/31 39/101/31 33/83/31
f 33/83/31 39/101/31 35/85/31
f 39/89/32 48/102/32 38/88/32
f 48/102/32 39/89/32 46/103/32
f 37/98/33 49/104/33 45/96/33
f 49/104/33 37/98/33 50/105/33
f 42/93/34 52/84/34 51/106/34
f 52/84/34 42/93/34 48/86/34
f 48/86/34 42/93/34 38/87/34
f 50/92/35 35/85/35 53/107/35
f 35/85/35 50/92/35 37/87/35
f 41/108/36 35/85/36 39/101/36
f 35/85/36 41/108/36 53/107/36
f 42/93/37 49/108/37 43/94/37
f 49/108/37 42/93/37 45/101/37
f 43/111/38 41/110/38 40/109/38
f 41/110/38 43/111/38 53/112/38
f 53/112/38 43/111/38 49/113/38
f 53/112/38 49/113/38 50/114/38
f 45/101/39 54/100/39 44/99/39
f 54/100/39 45/101/39 51/106/39
f 51/106/39 45/101/39 42/93/39
f 47/117/40 48/116/40 46/115/40
f 48/116/40 47/117/40 52/118/40
f 52/118/40 47/117/40 51/119/40
f 51/119/40 47/117/40 33/120/40
f 51/119/40 33/120/40 34/121/40
f 51/119/40 34/121/40 54/122/40
f 54/122/40 34/121/40 36/123/40
f 54/122/40 36/123/40 44/124/40

g leafs_pineA

v 1.155058E-15 1.7 1.92376
v -0.2143594 1.7 1.8
v 1.155058E-15 1.85 1.92376
v -0.8 1.7 1.46188
v -0.8 1.85 1.46188
v 0.8 1.85 0.5381198
v 0.8 1.85 1.46188
v 0.2 2.45 0.8845299
v 0.2 2.45 1.11547
v 1.155058E-15 1.85 0.07623959
v 4.620233E-15 2.45 0.7690599
v -0.8 1.7 0.5381198
v -0.8 1.85 0.5381198
v 0.8 1.7 1.46188
v 0.2143594 1.7 1.8
v 0.8 1.7 0.5381198
v -0.2 2.45 0.8845299
v -0.2 2.45 1.11547
v 1.155058E-15 1.7 0.07623959
v 0.2143594 1.7 0.2
v 4.620233E-15 2.45 1.23094
v -0.2143594 1.7 0.2

vn -0.8 0 1.385641
vn 1.16726 1.025912 0
vn 0.5836297 1.025912 -1.010876
vn -1.6 0 0
vn 0.8 0 1.385641
vn 1.6 0 0
vn -1.16726 1.025912 0
vn 0.8 0 -1.385641
vn -0.5836297 1.025912 1.010876
vn 0.5836297 1.025912 1.010876
vn -0.5836297 1.025912 -1.010876
vn -0.8 0 -1.385641


usemtl foliage(Clone)

f 57/85/41 56/84/41 55/83/41
f 56/84/41 57/85/41 58/86/41
f 58/86/41 57/85/41 59/87/41
f 62/90/42 61/89/42 60/88/42
f 61/89/42 62/90/42 63/91/42
f 64/93/43 62/92/43 60/87/43
f 62/92/43 64/93/43 65/94/43
f 58/97/44 67/96/44 66/95/44
f 67/96/44 58/97/44 59/98/44
f 61/101/45 69/100/45 68/99/45
f 69/100/45 61/101/45 55/83/45
f 55/83/45 61/101/45 57/85/45
f 61/89/46 70/102/46 60/88/46
f 70/102/46 61/89/46 68/103/46
f 59/98/47 71/104/47 67/96/47
f 71/104/47 59/98/47 72/105/47
f 64/93/48 74/84/48 73/106/48
f 74/84/48 64/93/48 70/86/48
f 70/86/48 64/93/48 60/87/48
f 72/92/49 57/85/49 75/107/49
f 57/85/49 72/92/49 59/87/49
f 63/108/50 57/85/50 61/101/50
f 57/85/50 63/108/50 75/107/50
f 64/93/51 71/108/51 65/94/51
f 71/108/51 64/93/51 67/101/51
f 65/111/38 63/110/38 62/109/38
f 63/110/38 65/111/38 75/112/38
f 75/112/38 65/111/38 71/113/38
f 75/112/38 71/113/38 72/114/38
f 67/101/52 76/100/52 66/99/52
f 76/100/52 67/101/52 73/106/52
f 73/106/52 67/101/52 64/93/52
f 69/117/40 70/116/40 68/115/40
f 70/116/40 69/117/40 74/118/40
f 74/118/40 69/117/40 73/119/40
f 73/119/40 69/117/40 55/120/40
f 73/119/40 55/120/40 56/121/40
f 73/119/40 56/121/40 76/122/40
f 76/122/40 56/121/40 58/123/40
f 76/122/40 58/123/40 66/124/40

g leafs_pineA

v 9.240467E-16 2.4 1.739008
v -0.1714875 2.4 1.64
v 9.240467E-16 2.55 1.739008
v -0.64 2.4 1.369504
v -0.64 2.55 1.369504
v 0.64 2.55 0.6304958
v 0.64 2.55 1.369504
v 0.16 3.15 0.9076239
v 0.16 3.15 1.092376
v 9.240467E-16 2.55 0.2609916
v 3.696187E-15 3.15 0.8152479
v -0.64 2.4 0.6304958
v -0.64 2.55 0.6304958
v 0.64 2.4 1.369504
v 0.1714875 2.4 1.64
v 0.64 2.4 0.6304958
v -0.16 3.15 0.9076239
v -0.16 3.15 1.092376
v 9.240467E-16 2.4 0.2609916
v 0.1714875 2.4 0.36
v 3.696187E-15 3.15 1.184752
v -0.1714875 2.4 0.36

vn -0.64 0 1.108513
vn 0.9338077 1.025912 0
vn 0.4669038 1.025912 -0.8087011
vn -1.28 0 0
vn 0.64 0 1.108513
vn 1.28 0 0
vn -0.9338077 1.025912 0
vn 0.64 0 -1.108513
vn -0.4669038 1.025912 0.8087011
vn 0.4669038 1.025912 0.8087011
vn -0.4669038 1.025912 -0.8087011
vn -0.64 0 -1.108513


usemtl foliage(Clone)

f 79/85/53 78/84/53 77/83/53
f 78/84/53 79/85/53 80/86/53
f 80/86/53 79/85/53 81/87/53
f 84/90/54 83/89/54 82/88/54
f 83/89/54 84/90/54 85/91/54
f 86/93/55 84/92/55 82/87/55
f 84/92/55 86/93/55 87/94/55
f 80/97/56 89/96/56 88/95/56
f 89/96/56 80/97/56 81/98/56
f 83/101/57 91/100/57 90/99/57
f 91/100/57 83/101/57 77/83/57
f 77/83/57 83/101/57 79/85/57
f 83/89/58 92/102/58 82/88/58
f 92/102/58 83/89/58 90/103/58
f 81/98/59 93/104/59 89/96/59
f 93/104/59 81/98/59 94/105/59
f 86/93/60 96/84/60 95/106/60
f 96/84/60 86/93/60 92/86/60
f 92/86/60 86/93/60 82/87/60
f 94/92/61 79/85/61 97/107/61
f 79/85/61 94/92/61 81/87/61
f 85/108/62 79/85/62 83/101/62
f 79/85/62 85/108/62 97/107/62
f 86/93/63 93/108/63 87/94/63
f 93/108/63 86/93/63 89/101/63
f 87/111/38 85/110/38 84/109/38
f 85/110/38 87/111/38 97/112/38
f 97/112/38 87/111/38 93/113/38
f 97/112/38 93/113/38 94/114/38
f 89/101/64 98/100/64 88/99/64
f 98/100/64 89/101/64 95/106/64
f 95/106/64 89/101/64 86/93/64
f 91/117/40 92/116/40 90/115/40
f 92/116/40 91/117/40 96/118/40
f 96/118/40 91/117/40 95/119/40
f 95/119/40 91/117/40 77/120/40
f 95/119/40 77/120/40 78/121/40
f 95/119/40 78/121/40 98/122/40
f 98/122/40 78/121/40 80/123/40
f 98/122/40 80/123/40 88/124/40

g leafs_pineA

v 6.468326E-16 3.1 1.517306
v -0.1200412 3.1 1.448
v 6.468326E-16 3.25 1.517306
v -0.448 3.1 1.258653
v -0.448 3.25 1.258653
v 0.448 3.25 0.7413471
v 0.448 3.25 1.258653
v 0.112 3.85 0.9353368
v 0.112 3.85 1.064663
v 6.468326E-16 3.25 0.4826941
v 2.587331E-15 3.85 0.8706735
v -0.448 3.1 0.7413471
v -0.448 3.25 0.7413471
v 0.448 3.1 1.258653
v 0.1200412 3.1 1.448
v 0.448 3.1 0.7413471
v -0.112 3.85 0.9353368
v -0.112 3.85 1.064663
v 6.468326E-16 3.1 0.4826941
v 0.1200412 3.1 0.552
v 2.587331E-15 3.85 1.129326
v -0.1200412 3.1 0.552

vn -0.448 0 0.7759588
vn 0.6536654 1.025912 0
vn 0.3268327 1.025912 -0.5660907
vn -0.896 0 0
vn 0.448 0 0.7759588
vn 0.896 0 0
vn -0.6536654 1.025912 0
vn 0.448 0 -0.7759588
vn -0.3268327 1.025912 0.5660907
vn 0.3268327 1.025912 0.5660907
vn -0.3268327 1.025912 -0.5660907
vn -0.448 0 -0.7759588


usemtl foliage(Clone)

f 101/85/65 100/84/65 99/83/65
f 100/84/65 101/85/65 102/86/65
f 102/86/65 101/85/65 103/87/65
f 106/90/66 105/89/66 104/88/66
f 105/89/66 106/90/66 107/91/66
f 108/93/67 106/92/67 104/87/67
f 106/92/67 108/93/67 109/94/67
f 102/97/68 111/96/68 110/95/68
f 111/96/68 102/97/68 103/98/68
f 105/101/69 113/100/69 112/99/69
f 113/100/69 105/101/69 99/83/69
f 99/83/69 105/101/69 101/85/69
f 105/89/70 114/102/70 104/88/70
f 114/102/70 105/89/70 112/103/70
f 103/98/71 115/104/71 111/96/71
f 115/104/71 103/98/71 116/105/71
f 108/93/72 118/84/72 117/106/72
f 118/84/72 108/93/72 114/86/72
f 114/86/72 108/93/72 104/87/72
f 116/92/73 101/85/73 119/107/73
f 101/85/73 116/92/73 103/87/73
f 107/108/74 101/85/74 105/101/74
f 101/85/74 107/108/74 119/107/74
f 108/93/75 115/108/75 109/94/75
f 115/108/75 108/93/75 111/101/75
f 109/111/38 107/110/38 106/109/38
f 107/110/38 109/111/38 119/112/38
f 119/112/38 109/111/38 115/113/38
f 119/112/38 115/113/38 116/114/38
f 111/101/76 120/100/76 110/99/76
f 120/100/76 111/101/76 117/106/76
f 117/106/76 111/101/76 108/93/76
f 113/117/40 114/116/40 112/115/40
f 114/116/40 113/117/40 118/118/40
f 118/118/40 113/117/40 117/119/40
f 117/119/40 113/117/40 99/120/40
f 117/119/40 99/120/40 100/121/40
f 117/119/40 100/121/40 120/122/40
f 120/122/40 100/121/40 102/123/40
f 120/122/40 102/123/40 110/124/40

