# Created by Kenney (www.kenney.nl)

mtllib Exit.mtl

g wall_gate

v 1 1.5 -1.732051
v 1 0 -1.732051
v 1 1.5 1.732051
v 1 0 1.732051
v 0.7990078 -3.7231E-17 2.032051
v 0.7990078 -3.38396E-17 1.732051
v 0.5987182 -3.495839E-17 2.032051
v 0.7990078 -1.69198E-17 -1.732051
v 0.7990078 -1.342109E-17 -2.032051
v 0.5987182 -1.114848E-17 -2.032051
v -1 0 -1.732051
v -1 1.5 -1.732051
v -1 0 1.732051
v -1 1.5 1.732051
v -0.7990078 1.69198E-17 -1.732051
v -0.7990078 0.75 -1.732051
v -0.7717823 0.9050988 -1.732051
v -0.6919611 1.049628 -1.732051
v -0.5649838 1.173738 -1.732051
v -0.3995039 1.268971 -1.732051
v -0.2067984 1.328837 -1.732051
v -5.95296E-09 1.349256 -1.732051
v 0.2067984 1.328837 -1.732051
v 0.3995039 1.268971 -1.732051
v 0.5649838 1.173738 -1.732051
v 0.6919611 1.049628 -1.732051
v 0.7717823 0.9050988 -1.732051
v 0.7990078 0.75 -1.732051
v 0.7990078 0.75 1.732051
v 0.7717823 0.9050988 1.732051
v 0.6919611 1.049628 1.732051
v 0.5649838 1.173738 1.732051
v 0.3995039 1.268971 1.732051
v 0.2067984 1.328837 1.732051
v 1.118963E-13 1.349256 1.732051
v -0.2067984 1.328837 1.732051
v -0.3995039 1.268971 1.732051
v -0.5649838 1.173738 1.732051
v -0.6919611 1.049628 1.732051
v -0.7717823 0.9050988 1.732051
v -0.7990078 0.75 1.732051
v -0.7990078 0 1.732051
v -0.7990078 2.041851E-17 -2.032051
v -0.5987182 1.829784E-17 -2.032051
v -0.7990078 -3.391406E-18 2.032051
v -0.5987182 -5.512074E-18 2.032051
v -0.5987182 0.7401543 -2.032051
v -0.5987182 0.7401543 2.032051
v -0.5766479 0.8658843 -2.032051
v -0.5766479 0.8658843 2.032051
v -0.5170084 0.9738712 -2.032051
v -0.5170084 0.9738712 2.032051
v -0.4221356 1.066602 -2.032051
v -0.4221356 1.066602 2.032051
v -0.2984949 1.137756 2.032051
v -0.298495 1.137756 -2.032051
v -0.1545123 1.182486 2.032051
v -0.1545124 1.182486 -2.032051
v 1.505284E-09 1.197742 2.032051
v -4.447831E-09 1.197742 -2.032051
v 0.1545124 1.182486 2.032051
v 0.1545123 1.182486 -2.032051
v 0.298495 1.137756 2.032051
v 0.2984949 1.137756 -2.032051
v 0.4221356 1.066602 2.032051
v 0.4221356 1.066602 -2.032051
v 0.5170084 0.9738712 -2.032051
v 0.5170084 0.9738712 2.032051
v 0.5766479 0.8658843 -2.032051
v 0.5766479 0.8658843 2.032051
v 0.5987182 0.7401543 -2.032051
v 0.5987182 0.7401543 2.032051
v -0.7990078 0.75 -2.032051
v -0.7717823 0.9050988 -2.032051
v -0.6919611 1.049628 -2.032051
v -0.5649838 1.173738 -2.032051
v -0.3995039 1.268971 -2.032051
v 0.3995039 1.268971 -2.032051
v 0.5649838 1.173738 -2.032051
v 0.6919611 1.049628 -2.032051
v 0.7717823 0.9050988 -2.032051
v 0.7990078 0.75 -2.032051
v -0.2067984 1.328837 -2.032051
v 0.2067984 1.328837 -2.032051
v -5.952982E-09 1.349256 -2.032051
v 0.7990078 0.75 2.032051
v 0.7717823 0.9050988 2.032051
v 0.6919611 1.049628 2.032051
v 0.5649838 1.173738 2.032051
v 0.3995039 1.268971 2.032051
v -0.3995039 1.268971 2.032051
v -0.2067984 1.328837 2.032051
v 0.2067984 1.328837 2.032051
v 1.335536E-13 1.349256 2.032051
v -0.5649838 1.173738 2.032051
v -0.6919611 1.049628 2.032051
v -0.7717823 0.9050988 2.032051
v -0.7990078 0.75 2.032051

vn 2 0 0
vn 0 -1.5 0
vn -2 0 0
vn 0 1.5 0
vn 0 0 -6
vn 0 0 6
vn 1.931852 -0.3882286 0
vn 1.98289 -0.1957893 0
vn 1.732051 -0.75 0
vn 1.414214 -1.06066 0
vn 1 -1.299038 0
vn 0.5176381 -1.448889 0
vn -0.5176381 -1.448889 0
vn -1 -1.299038 0
vn -1.414214 -1.06066 0
vn -1.732051 -0.75 0
vn -1.931852 -0.3882286 0
vn -1.98289 -0.1957893 0
vn -1.931852 0.3882286 0
vn -1.98289 0.1957893 0
vn -1.732051 0.75 0
vn -1.414214 1.06066 0
vn -1 1.299038 0
vn -0.5176381 1.448889 0
vn 0.5176381 1.448889 0
vn 1 1.299038 0
vn 1.414214 1.06066 0
vn 1.732051 0.75 0
vn 1.931852 0.3882286 0
vn 1.98289 0.1957893 0

vt 1.732051 1.5
vt 1.732051 0
vt -1.732051 1.5
vt -1.732051 0
vt -0.7990078 -2.032051
vt -0.7990078 -1.732051
vt -0.5987182 -2.032051
vt -0.7990078 1.732051
vt -0.7990078 2.032051
vt -0.5987182 2.032051
vt -1 1.732051
vt -1 -1.732051
vt 1 1.732051
vt 1 -1.732051
vt 1 0
vt 0.7990078 1.69198E-17
vt 1 1.5
vt 0.7990078 0.75
vt 0.7717823 0.9050988
vt 0.6919611 1.049628
vt 0.5649838 1.173738
vt 0.3995039 1.268971
vt 0.2067984 1.328837
vt 5.95296E-09 1.349256
vt -1 1.5
vt -0.2067984 1.328837
vt -0.3995039 1.268971
vt -0.5649838 1.173738
vt -0.6919611 1.049628
vt -0.7717823 0.9050988
vt -0.7990078 0.75
vt -1 0
vt -0.7990078 -1.69198E-17
vt 0.7990078 -3.38396E-17
vt 1.118963E-13 1.349256
vt -0.7990078 0
vt 0.7990078 -1.732051
vt 0.7990078 1.732051
vt -0.7990078 1.69198E-17
vt -0.7990078 2.041851E-17
vt 0.7990078 2.032051
vt 0.5987182 2.032051
vt 0.7990078 -2.032051
vt 0.5987182 -2.032051
vt 2.032051 0.7401543
vt 2.032051 1.829784E-17
vt -2.032051 0.7401543
vt -2.032051 -5.512074E-18
vt 2.032051 0.8658843
vt -2.032051 0.8658843
vt 2.032051 0.9738712
vt -2.032051 0.9738712
vt 0.4221356 2.032051
vt 0.5170084 2.032051
vt 0.4221356 -2.032051
vt 0.5170084 -2.032051
vt 0.2984949 -2.032051
vt 0.298495 2.032051
vt 0.1545123 -2.032051
vt 0.1545124 2.032051
vt -1.505284E-09 -2.032051
vt 4.447831E-09 2.032051
vt -0.1545124 -2.032051
vt -0.1545123 2.032051
vt -0.298495 -2.032051
vt -0.2984949 2.032051
vt -0.4221356 -2.032051
vt -0.4221356 2.032051
vt -0.5170084 2.032051
vt -0.5170084 -2.032051
vt -2.032051 -1.114848E-17
vt 2.032051 -3.495839E-17
vt 0.5987182 1.829784E-17
vt 0.5987182 0.7401543
vt 0.7990078 2.041851E-17
vt 0.5766479 0.8658843
vt 0.5170084 0.9738712
vt 0.4221356 1.066602
vt 0.298495 1.137756
vt 0.1545124 1.182486
vt 4.447831E-09 1.197742
vt -0.1545123 1.182486
vt -0.2984949 1.137756
vt -0.4221356 1.066602
vt -0.5170084 0.9738712
vt -0.5766479 0.8658843
vt -0.5987182 0.7401543
vt -0.5987182 -1.114848E-17
vt -0.7990078 -1.342109E-17
vt 5.952982E-09 1.349256
vt -2.032051 2.041851E-17
vt -2.032051 0.75
vt -1.732051 1.69198E-17
vt -1.732051 0.75
vt -2.032051 0.9050988
vt -1.732051 0.9050988
vt -2.032051 1.049628
vt -1.732051 1.049628
vt 0.5649838 -2.032051
vt 0.5649838 -1.732051
vt 0.6919611 -2.032051
vt 0.6919611 -1.732051
vt 0.3995039 -1.732051
vt 0.3995039 -2.032051
vt 0.2067984 -1.732051
vt 0.2067984 -2.032051
vt 5.95296E-09 -1.732051
vt 5.952982E-09 -2.032051
vt -0.2067984 -1.732051
vt -0.2067984 -2.032051
vt -0.3995039 -1.732051
vt -0.3995039 -2.032051
vt -0.5649838 -1.732051
vt -0.5649838 -2.032051
vt -0.6919611 -2.032051
vt -0.6919611 -1.732051
vt 2.032051 0.9050988
vt 1.732051 0.9050988
vt 2.032051 1.049628
vt 1.732051 1.049628
vt 2.032051 0.75
vt 1.732051 0.75
vt 2.032051 -1.342109E-17
vt 1.732051 -1.69198E-17
vt 0.7990078 -3.7231E-17
vt 0.5987182 -3.495839E-17
vt 1.505284E-09 1.197742
vt 1.335536E-13 1.349256
vt -0.7990078 -3.391406E-18
vt -0.5987182 -5.512074E-18
vt -1.732051 -3.38396E-17
vt -2.032051 -3.7231E-17
vt -0.6919611 1.732051
vt -0.6919611 2.032051
vt -0.5649838 1.732051
vt -0.5649838 2.032051
vt -0.3995039 2.032051
vt -0.3995039 1.732051
vt -0.2067984 2.032051
vt -0.2067984 1.732051
vt -1.335536E-13 2.032051
vt -1.118963E-13 1.732051
vt 0.2067984 2.032051
vt 0.2067984 1.732051
vt 0.3995039 2.032051
vt 0.3995039 1.732051
vt 0.5649838 2.032051
vt 0.5649838 1.732051
vt 0.6919611 1.732051
vt 0.6919611 2.032051
vt 2.032051 -3.391406E-18

usemtl stone(Clone)

f 3/3/1 2/2/1 1/1/1
f 2/2/1 3/3/1 4/4/1
f 7/7/2 6/6/2 5/5/2
f 6/6/2 7/7/2 8/8/2
f 8/8/2 7/7/2 9/9/2
f 9/9/2 7/7/2 10/10/2
f 2/11/2 6/6/2 8/8/2
f 6/6/2 2/11/2 4/12/2
f 13/2/3 12/3/3 11/4/3
f 12/3/3 13/2/3 14/1/3
f 1/12/4 14/13/4 3/11/4
f 14/13/4 1/12/4 12/14/4
f 12/17/5 15/16/5 11/15/5
f 15/16/5 12/17/5 16/18/5
f 16/18/5 12/17/5 17/19/5
f 17/19/5 12/17/5 18/20/5
f 18/20/5 12/17/5 19/21/5
f 19/21/5 12/17/5 20/22/5
f 20/22/5 12/17/5 21/23/5
f 21/23/5 12/17/5 22/24/5
f 1/25/5 22/24/5 12/17/5
f 1/25/5 23/26/5 22/24/5
f 1/25/5 24/27/5 23/26/5
f 1/25/5 25/28/5 24/27/5
f 1/25/5 26/29/5 25/28/5
f 1/25/5 27/30/5 26/29/5
f 1/25/5 28/31/5 27/30/5
f 2/32/5 28/31/5 1/25/5
f 28/31/5 2/32/5 8/33/5
f 4/15/6 29/18/6 6/34/6
f 29/18/6 4/15/6 3/17/6
f 29/18/6 3/17/6 30/19/6
f 30/19/6 3/17/6 31/20/6
f 31/20/6 3/17/6 32/21/6
f 32/21/6 3/17/6 33/22/6
f 33/22/6 3/17/6 34/23/6
f 34/23/6 3/17/6 35/35/6
f 14/25/6 35/35/6 3/17/6
f 14/25/6 36/26/6 35/35/6
f 14/25/6 37/27/6 36/26/6
f 14/25/6 38/28/6 37/27/6
f 14/25/6 39/29/6 38/28/6
f 14/25/6 40/30/6 39/29/6
f 14/25/6 41/31/6 40/30/6
f 13/32/6 41/31/6 14/25/6
f 41/31/6 13/32/6 42/36/6
f 13/14/2 15/38/2 42/37/2
f 15/38/2 13/14/2 11/13/2
f 43/40/2 42/36/2 15/39/2
f 44/42/2 42/37/2 43/41/2
f 44/42/2 45/43/2 42/37/2
f 45/43/2 44/42/2 46/44/2

usemtl stoneDark(Clone)

f 48/47/1 44/46/1 47/45/1
f 44/46/1 48/47/1 46/48/1
f 50/50/7 47/45/8 49/49/7
f 47/45/8 50/50/7 48/47/8
f 52/52/9 49/49/7 51/51/9
f 49/49/7 52/52/9 50/50/7
f 54/55/10 51/54/9 53/53/10
f 51/54/9 54/55/10 52/56/9
f 54/55/10 56/58/11 55/57/11
f 56/58/11 54/55/10 53/53/10
f 55/57/11 58/60/12 57/59/12
f 58/60/12 55/57/11 56/58/11
f 57/59/12 60/62/2 59/61/2
f 60/62/2 57/59/12 58/60/12
f 59/61/2 62/64/13 61/63/13
f 62/64/13 59/61/2 60/62/2
f 61/63/13 64/66/14 63/65/14
f 64/66/14 61/63/13 62/64/13
f 63/65/14 66/68/15 65/67/15
f 66/68/15 63/65/14 64/66/14
f 68/70/16 66/68/15 67/69/16
f 66/68/15 68/70/16 65/67/15
f 70/49/17 67/52/16 69/50/17
f 67/52/16 70/49/17 68/51/16
f 72/45/18 69/50/17 71/47/18
f 69/50/17 72/45/18 70/49/17
f 7/72/3 71/47/3 10/71/3
f 71/47/3 7/72/3 72/45/3
f 43/75/5 47/74/5 44/73/5
f 47/74/5 43/75/5 73/18/5
f 47/74/5 73/18/5 49/76/5
f 49/76/5 73/18/5 74/19/5
f 49/76/5 74/19/5 51/77/5
f 51/77/5 74/19/5 75/20/5
f 51/77/5 75/20/5 53/78/5
f 53/78/5 75/20/5 76/21/5
f 53/78/5 76/21/5 56/79/5
f 56/79/5 76/21/5 58/80/5
f 58/80/5 76/21/5 77/22/5
f 58/80/5 77/22/5 60/81/5
f 78/27/5 60/81/5 77/22/5
f 78/27/5 62/82/5 60/81/5
f 79/28/5 62/82/5 78/27/5
f 79/28/5 64/83/5 62/82/5
f 79/28/5 66/84/5 64/83/5
f 80/29/5 66/84/5 79/28/5
f 80/29/5 67/85/5 66/84/5
f 81/30/5 67/85/5 80/29/5
f 81/30/5 69/86/5 67/85/5
f 82/31/5 69/86/5 81/30/5
f 82/31/5 71/87/5 69/86/5
f 82/31/5 10/88/5 71/87/5
f 10/88/5 82/31/5 9/89/5
f 78/27/5 77/22/5 83/23/5
f 78/27/5 83/23/5 84/26/5
f 84/26/5 83/23/5 85/90/5
f 15/93/3 73/92/3 43/91/3
f 73/92/3 15/93/3 16/94/3
f 73/92/20 17/96/19 74/95/19
f 17/96/19 73/92/20 16/94/20
f 74/95/19 18/98/21 75/97/21
f 18/98/21 74/95/19 17/96/19
f 75/101/21 19/100/22 76/99/22
f 19/100/22 75/101/21 18/102/21
f 77/104/23 19/100/22 20/103/23
f 19/100/22 77/104/23 76/99/22
f 83/106/24 20/103/23 21/105/24
f 20/103/23 83/106/24 77/104/23
f 85/108/4 21/105/24 22/107/4
f 21/105/24 85/108/4 83/106/24
f 84/110/25 22/107/4 23/109/25
f 22/107/4 84/110/25 85/108/4
f 78/112/26 23/109/25 24/111/26
f 23/109/25 78/112/26 84/110/25
f 79/114/27 24/111/26 25/113/27
f 24/111/26 79/114/27 78/112/26
f 79/114/27 26/116/28 80/115/28
f 26/116/28 79/114/27 25/113/27
f 80/119/28 27/118/29 81/117/29
f 27/118/29 80/119/28 26/120/28
f 81/117/29 28/122/30 82/121/30
f 28/122/30 81/117/29 27/118/29
f 28/122/1 9/123/1 82/121/1
f 9/123/1 28/122/1 8/124/1
f 86/18/6 7/126/6 5/125/6
f 7/126/6 86/18/6 72/74/6
f 72/74/6 86/18/6 70/76/6
f 70/76/6 86/18/6 87/19/6
f 70/76/6 87/19/6 68/77/6
f 68/77/6 87/19/6 88/20/6
f 68/77/6 88/20/6 65/78/6
f 65/78/6 88/20/6 89/21/6
f 65/78/6 89/21/6 63/79/6
f 63/79/6 89/21/6 61/80/6
f 61/80/6 89/21/6 90/22/6
f 61/80/6 90/22/6 59/127/6
f 59/127/6 90/22/6 91/27/6
f 91/27/6 90/22/6 92/26/6
f 92/26/6 90/22/6 93/23/6
f 92/26/6 93/23/6 94/128/6
f 91/27/6 57/82/6 59/127/6
f 95/28/6 57/82/6 91/27/6
f 95/28/6 55/83/6 57/82/6
f 95/28/6 54/84/6 55/83/6
f 96/29/6 54/84/6 95/28/6
f 96/29/6 52/85/6 54/84/6
f 97/30/6 52/85/6 96/29/6
f 97/30/6 50/86/6 52/85/6
f 98/31/6 50/86/6 97/30/6
f 98/31/6 48/87/6 50/86/6
f 45/129/6 48/87/6 98/31/6
f 48/87/6 45/129/6 46/130/6
f 86/92/1 6/131/1 29/94/1
f 6/131/1 86/92/1 5/132/1
f 30/96/29 86/92/30 29/94/30
f 86/92/30 30/96/29 87/95/29
f 31/98/28 87/95/29 30/96/29
f 87/95/29 31/98/28 88/97/28
f 32/135/27 88/134/28 31/133/28
f 88/134/28 32/135/27 89/136/27
f 32/135/27 90/137/26 89/136/27
f 90/137/26 32/135/27 33/138/26
f 33/138/26 93/139/25 90/137/26
f 93/139/25 33/138/26 34/140/25
f 34/140/25 94/141/4 93/139/25
f 94/141/4 34/140/25 35/142/4
f 35/142/4 92/143/24 94/141/4
f 92/143/24 35/142/4 36/144/24
f 36/144/24 91/145/23 92/143/24
f 91/145/23 36/144/24 37/146/23
f 37/146/23 95/147/22 91/145/23
f 95/147/22 37/146/23 38/148/22
f 39/149/21 95/147/22 38/148/22
f 95/147/22 39/149/21 96/150/21
f 40/118/19 96/119/21 39/120/21
f 96/119/21 40/118/19 97/117/19
f 41/122/20 97/117/19 40/118/19
f 97/117/19 41/122/20 98/121/20
f 45/151/3 41/122/3 42/2/3
f 41/122/3 45/151/3 98/121/3

g hut_halfRoof

v -0.5601717 1.25399 -0.2000001
v -0.6124145 1.217992 -0.2000001
v -0.5601717 1.25399 -1.604002
v -0.6124145 1.217992 -1.604002
v 0.8 -3.874302E-07 -0.2
v -0.8 -3.874302E-07 -0.2
v 0.8 0.8304021 -0.2
v 0.7962339 0.8896574 -0.2
v 0.783976 0.9532079 -0.2
v 0.7637793 1.014565 -0.2
v 0.7359895 1.072678 -0.2
v 0.7010819 1.126554 -0.2000001
v 0.659654 1.175269 -0.2000001
v 0.6124145 1.217992 -0.2000001
v 0.5601717 1.25399 -0.2000001
v 0.5038194 1.282649 -0.2000001
v 0.444322 1.303477 -0.2000001
v 0.3826974 1.316117 -0.2000001
v 0.3252378 1.320001 -0.2000001
v -0.3252378 1.320001 -0.2000001
v -0.3826974 1.316117 -0.2000001
v -0.444322 1.303477 -0.2000001
v -0.5038194 1.282649 -0.2000001
v -0.659654 1.175269 -0.2000001
v -0.7010819 1.126554 -0.2000001
v -0.7359895 1.072678 -0.2
v -0.7637793 1.014565 -0.2
v -0.783976 0.9532079 -0.2
v -0.7962339 0.8896574 -0.2
v -0.8 0.8304021 -0.2
v 0.5038194 1.282648 -1.604002
v 0.444322 1.303476 -1.604002
v 0.3252378 1.320001 -1.604002
v -0.3252378 1.320001 -1.604002
v 0.3826974 1.316117 -1.604002
v -0.783976 0.9532077 -1.604002
v -0.7637793 1.014565 -1.604002
v -0.659654 1.175269 -1.604002
v 0.5601717 1.25399 -1.604002
v 0.7637793 1.014565 -1.604002
v 0.7359895 1.072678 -1.604002
v 0.7010819 1.126553 -1.604002
v -0.8 0.830402 -1.604002
v -0.7962339 0.8896573 -1.604002
v 0.7962339 0.8896573 -1.604002
v 0.783976 0.9532077 -1.604002
v -0.3826974 1.316117 -1.604002
v -0.7359895 1.072678 -1.604002
v -0.7010819 1.126553 -1.604002
v 0.659654 1.175269 -1.604002
v 0.8 -5.066395E-07 -1.604002
v 0.8 0.830402 -1.604002
v -0.444322 1.303476 -1.604002
v -0.5038194 1.282648 -1.604002
v 0.6124145 1.217992 -1.604002
v -0.8 -5.066395E-07 -1.604002
v 0.64 0.1649997 -1.604002
v 0.64 0.8250005 -1.604002
v -0.64 0.1649997 -1.604002
v 0.6372623 0.8680742 -1.604002
v 0.6290962 0.9104109 -1.604002
v 0.6156415 0.9512862 -1.604002
v 0.5971281 0.9900007 -1.604002
v 0.573873 1.025892 -1.604002
v 0.5462742 1.058346 -1.604002
v 0.5148036 1.086807 -1.604002
v 0.48 1.110789 -1.604002
v 0.4424587 1.129881 -1.604002
v 0.4028221 1.143757 -1.604002
v 0.3617684 1.152178 -1.604002
v 0.32 1.155001 -1.604002
v -0.32 1.155001 -1.604002
v -0.3617684 1.152178 -1.604002
v -0.4028221 1.143757 -1.604002
v -0.4424587 1.129881 -1.604002
v -0.48 1.110789 -1.604002
v -0.5148036 1.086807 -1.604002
v -0.5462742 1.058346 -1.604002
v -0.573873 1.025892 -1.604002
v -0.5971281 0.9900007 -1.604002
v -0.6156415 0.9512862 -1.604002
v -0.6290962 0.9104109 -1.604002
v -0.6372623 0.8680742 -1.604002
v -0.64 0.8250005 -1.604002

vn -0.8 1.428944 -1.192093E-07
vn -0.9740183 1.309035 -1.192093E-07
vn 0 1.907349E-06 14.04002
vn 0.6122935 1.524403 -2.384186E-07
vn 0.4141105 1.59378 -2.384186E-07
vn 0 1.650002 -2.384186E-07
vn 0.2088419 1.635886 -2.384186E-07
vn 0.104645 1.646469 -2.384186E-07
vn -1.545481 0.427052 -5.960464E-08
vn -1.478207 0.6314284 -5.960464E-08
vn -1.131371 1.166728 -1.192093E-07
vn 0.8 1.428944 -1.192093E-07
vn 1.478207 0.6314284 -5.960464E-08
vn 1.385641 0.8250011 -1.192093E-07
vn 1.269365 1.004458 -1.192093E-07
vn -1.596574 0.1079153 -1.490116E-08
vn -1.586312 0.2153685 -2.980232E-08
vn 1.586312 0.2153685 -2.980232E-08
vn 1.545481 0.427052 -5.960464E-08
vn -0.104645 1.646469 -2.384186E-07
vn -0.2088419 1.635886 -2.384186E-07
vn -1.385641 0.8250011 -1.192093E-07
vn -1.269365 1.004458 -1.192093E-07
vn 1.131371 1.166728 -1.192093E-07
vn 1.6 0 0
vn -0.4141105 1.59378 -2.384186E-07
vn -0.6122935 1.524403 -2.384186E-07
vn 0.9740183 1.309035 -1.192093E-07
vn 1.596574 0.1079153 -1.490116E-08
vn -1.6 0 0
vn 0 -1.650002 2.384186E-07
vn 0 -1.907349E-06 -14.04002

vt 0.5601717 -0.2000001
vt 0.6124145 -0.2000001
vt 0.5601717 -1.604002
vt 0.6124145 -1.604002
vt 0.8 -4.161894E-07
vt -0.8 -4.161894E-07
vt 0.8 0.8304022
vt 0.7962339 0.8896574
vt 0.783976 0.9532079
vt 0.7637793 1.014565
vt 0.7359895 1.072678
vt 0.7010819 1.126554
vt 0.659654 1.175269
vt 0.6124145 1.217992
vt 0.5601717 1.25399
vt 0.5038194 1.282649
vt 0.444322 1.303477
vt 0.3826974 1.316118
vt 0.3252378 1.320001
vt -0.3252378 1.320001
vt -0.3826974 1.316118
vt -0.444322 1.303477
vt -0.5038194 1.282649
vt -0.5601717 1.25399
vt -0.6124145 1.217992
vt -0.659654 1.175269
vt -0.7010819 1.126554
vt -0.7359895 1.072678
vt -0.7637793 1.014565
vt -0.783976 0.9532079
vt -0.7962339 0.8896574
vt -0.8 0.8304022
vt -0.5038194 -0.2000001
vt -0.444322 -0.2000001
vt -0.5038194 -1.604002
vt -0.444322 -1.604002
vt -0.3252378 -0.2000001
vt 0.3252378 -0.2000001
vt -0.3252378 -1.604002
vt 0.3252378 -1.604002
vt -0.3826974 -0.2000001
vt -0.3826974 -1.604002
vt -0.2000001 0.9532079
vt -1.604002 0.9532077
vt -0.2000001 1.014565
vt -1.604002 1.014565
vt 0.659654 -0.2000001
vt 0.659654 -1.604002
vt -0.5601717 -0.2000001
vt -0.5601717 -1.604002
vt 1.604002 1.014565
vt 0.2000001 1.014565
vt 1.604002 1.072678
vt 0.2000001 1.072678
vt 1.604002 1.126553
vt 0.2000001 1.126554
vt -0.2 0.8304022
vt -1.604002 0.830402
vt -0.2 0.8896574
vt -1.604002 0.8896573
vt 1.604002 0.8896573
vt 0.2 0.8896574
vt 1.604002 0.9532077
vt 0.2000001 0.9532079
vt 0.3826974 -0.2000001
vt 0.3826974 -1.604002
vt -0.2000001 1.072678
vt -1.604002 1.072678
vt -0.2000001 1.126554
vt -1.604002 1.126553
vt 1.604002 1.175269
vt 0.2000001 1.175269
vt 1.604002 -5.835594E-07
vt 0.1999999 -4.161894E-07
vt 1.604002 0.830402
vt 0.2 0.8304022
vt 0.444322 -0.2000001
vt 0.5038194 -0.2000001
vt 0.444322 -1.604002
vt 0.5038194 -1.604002
vt -0.6124145 -0.2000001
vt -0.6124145 -1.604002
vt -0.1999999 -4.161894E-07
vt -1.604002 -5.835594E-07
vt 0.8 0.1999999
vt -0.8 0.1999999
vt 0.8 1.604002
vt -0.8 1.604002
vt -0.659654 -0.2000001
vt -0.659654 -1.604002
vt -0.2000001 1.175269
vt -1.604002 1.175269
vt -0.64 0.1649996
vt -0.64 0.8250005
vt 0.64 0.1649996
vt -0.6372623 0.8680742
vt -0.6290962 0.9104108
vt -0.6156415 0.9512861
vt -0.5971281 0.9900007
vt -0.573873 1.025892
vt -0.5462742 1.058346
vt -0.5148036 1.086807
vt -0.48 1.110789
vt -0.4424587 1.129881
vt -0.4028221 1.143756
vt -0.3617684 1.152178
vt -0.32 1.155001
vt 0.32 1.155001
vt 0.3617684 1.152178
vt 0.4028221 1.143756
vt 0.4424587 1.129881
vt 0.48 1.110789
vt 0.5148036 1.086807
vt 0.5462742 1.058346
vt 0.573873 1.025892
vt 0.5971281 0.9900007
vt 0.6156415 0.9512861
vt 0.6290962 0.9104108
vt 0.6372623 0.8680742
vt 0.64 0.8250005
vt -0.8 0.830402
vt -0.8 -5.835594E-07
vt 0.8 -5.835594E-07
vt -0.7962339 0.8896573
vt -0.783976 0.9532077
vt -0.7637793 1.014565
vt -0.7359895 1.072678
vt -0.7010819 1.126553
vt -0.659654 1.175269
vt 0.659654 1.175269
vt 0.7010819 1.126553
vt 0.7359895 1.072678
vt 0.7637793 1.014565
vt 0.783976 0.9532077
vt 0.7962339 0.8896573
vt 0.8 0.830402
vt 0.6124145 1.217992
vt 0.5601717 1.25399
vt 0.5038194 1.282648
vt 0.444322 1.303476
vt 0.3826974 1.316117
vt 0.3252378 1.320001
vt -0.3252378 1.320001
vt -0.3826974 1.316117
vt -0.444322 1.303476
vt -0.5038194 1.282648
vt -0.5601717 1.25399
vt -0.6124145 1.217992

usemtl _defaultMat(Clone)

f 101/154/31 100/153/32 99/152/31
f 100/153/32 101/154/31 102/155/32
f 105/158/33 104/157/33 103/156/33
f 104/157/33 105/158/33 106/159/33
f 104/157/33 106/159/33 107/160/33
f 104/157/33 107/160/33 108/161/33
f 104/157/33 108/161/33 109/162/33
f 104/157/33 109/162/33 110/163/33
f 104/157/33 110/163/33 111/164/33
f 104/157/33 111/164/33 112/165/33
f 104/157/33 112/165/33 113/166/33
f 104/157/33 113/166/33 114/167/33
f 104/157/33 114/167/33 115/168/33
f 104/157/33 115/168/33 116/169/33
f 104/157/33 116/169/33 117/170/33
f 104/157/33 117/170/33 118/171/33
f 104/157/33 118/171/33 119/172/33
f 104/157/33 119/172/33 120/173/33
f 104/157/33 120/173/33 121/174/33
f 104/157/33 121/174/33 99/175/33
f 104/157/33 99/175/33 100/176/33
f 104/157/33 100/176/33 122/177/33
f 104/157/33 122/177/33 123/178/33
f 104/157/33 123/178/33 124/179/33
f 104/157/33 124/179/33 125/180/33
f 104/157/33 125/180/33 126/181/33
f 104/157/33 126/181/33 127/182/33
f 104/157/33 127/182/33 128/183/33
f 129/186/34 115/185/35 114/184/34
f 115/185/35 129/186/34 130/187/35
f 131/190/36 118/189/36 117/188/36
f 118/189/36 131/190/36 132/191/36
f 133/193/37 117/188/38 116/192/37
f 117/188/38 133/193/37 131/190/38
f 125/196/40 134/195/39 126/194/39
f 134/195/39 125/196/40 135/197/40
f 102/155/32 122/198/41 100/153/32
f 122/198/41 102/155/32 136/199/41
f 137/201/42 114/184/34 113/200/42
f 114/184/34 137/201/42 129/186/34
f 139/204/44 108/203/43 138/202/43
f 108/203/43 139/204/44 109/205/44
f 140/206/45 109/205/44 139/204/44
f 109/205/44 140/206/45 110/207/45
f 127/210/47 141/209/46 128/208/46
f 141/209/46 127/210/47 142/211/47
f 144/214/49 106/213/48 143/212/48
f 106/213/48 144/214/49 107/215/49
f 132/191/50 119/216/51 118/189/50
f 119/216/51 132/191/50 145/217/51
f 123/220/53 146/219/52 124/218/52
f 146/219/52 123/220/53 147/221/53
f 130/187/35 116/192/37 115/185/35
f 116/192/37 130/187/35 133/193/37
f 148/222/54 110/207/45 140/206/45
f 110/207/45 148/222/54 111/223/54
f 150/226/55 103/225/55 149/224/55
f 103/225/55 150/226/55 105/227/55
f 151/230/56 121/229/57 120/228/56
f 121/229/57 151/230/56 152/231/57
f 153/233/58 113/200/42 112/232/58
f 113/200/42 153/233/58 137/201/42
f 143/212/48 105/227/59 150/226/59
f 105/227/59 143/212/48 106/213/48
f 128/208/60 154/235/60 104/234/60
f 154/235/60 128/208/60 141/209/60
f 126/194/39 142/211/47 127/210/47
f 142/211/47 126/194/39 134/195/39
f 145/217/51 120/228/56 119/216/51
f 120/228/56 145/217/51 151/230/56
f 154/238/61 103/237/61 104/236/61
f 103/237/61 154/238/61 149/239/61
f 152/231/57 99/152/31 121/229/57
f 99/152/31 152/231/57 101/154/31
f 138/202/43 107/215/49 144/214/49
f 107/215/49 138/202/43 108/203/43
f 148/241/54 112/232/58 111/240/54
f 112/232/58 148/241/54 153/233/58
f 122/242/41 147/221/53 123/220/53
f 147/221/53 122/242/41 136/243/41
f 124/218/52 135/197/40 125/196/40
f 135/197/40 124/218/52 146/219/52
f 157/246/62 156/245/62 155/244/62
f 156/245/62 157/246/62 158/247/62
f 158/247/62 157/246/62 159/248/62
f 159/248/62 157/246/62 160/249/62
f 160/249/62 157/246/62 161/250/62
f 161/250/62 157/246/62 162/251/62
f 162/251/62 157/246/62 163/252/62
f 163/252/62 157/246/62 164/253/62
f 164/253/62 157/246/62 165/254/62
f 165/254/62 157/246/62 166/255/62
f 166/255/62 157/246/62 167/256/62
f 167/256/62 157/246/62 168/257/62
f 168/257/62 157/246/62 169/258/62
f 169/258/62 157/246/62 170/259/62
f 170/259/62 157/246/62 171/260/62
f 171/260/62 157/246/62 172/261/62
f 172/261/62 157/246/62 173/262/62
f 173/262/62 157/246/62 174/263/62
f 174/263/62 157/246/62 175/264/62
f 175/264/62 157/246/62 176/265/62
f 176/265/62 157/246/62 177/266/62
f 177/266/62 157/246/62 178/267/62
f 178/267/62 157/246/62 179/268/62
f 179/268/62 157/246/62 180/269/62
f 180/269/62 157/246/62 181/270/62
f 181/270/62 157/246/62 182/271/62

usemtl _defaultMat(Clone)

f 149/273/62 155/244/62 150/272/62
f 155/244/62 149/273/62 154/274/62
f 150/272/62 155/244/62 143/275/62
f 143/275/62 155/244/62 144/276/62
f 144/276/62 155/244/62 138/277/62
f 138/277/62 155/244/62 139/278/62
f 139/278/62 155/244/62 140/279/62
f 140/279/62 155/244/62 148/280/62
f 155/244/62 154/274/62 157/246/62
f 157/246/62 154/274/62 182/271/62
f 182/271/62 154/274/62 136/281/62
f 136/281/62 154/274/62 147/282/62
f 147/282/62 154/274/62 146/283/62
f 146/283/62 154/274/62 135/284/62
f 135/284/62 154/274/62 134/285/62
f 134/285/62 154/274/62 142/286/62
f 142/286/62 154/274/62 141/287/62
f 136/281/62 181/270/62 182/271/62
f 136/281/62 180/269/62 181/270/62
f 136/281/62 179/268/62 180/269/62
f 102/288/62 179/268/62 136/281/62
f 102/288/62 178/267/62 179/268/62
f 102/288/62 177/266/62 178/267/62
f 101/289/62 177/266/62 102/288/62
f 101/289/62 176/265/62 177/266/62
f 101/289/62 175/264/62 176/265/62
f 152/290/62 175/264/62 101/289/62
f 152/290/62 174/263/62 175/264/62
f 151/291/62 174/263/62 152/290/62
f 151/291/62 173/262/62 174/263/62
f 151/291/62 172/261/62 173/262/62
f 145/292/62 172/261/62 151/291/62
f 145/292/62 171/260/62 172/261/62
f 132/293/62 171/260/62 145/292/62
f 132/293/62 170/259/62 171/260/62
f 132/293/62 169/258/62 170/259/62
f 131/294/62 169/258/62 132/293/62
f 131/294/62 168/257/62 169/258/62
f 133/295/62 168/257/62 131/294/62
f 133/295/62 167/256/62 168/257/62
f 133/295/62 166/255/62 167/256/62
f 130/296/62 166/255/62 133/295/62
f 130/296/62 165/254/62 166/255/62
f 129/297/62 165/254/62 130/296/62
f 129/297/62 164/253/62 165/254/62
f 129/297/62 163/252/62 164/253/62
f 137/298/62 163/252/62 129/297/62
f 137/298/62 162/251/62 163/252/62
f 137/298/62 161/250/62 162/251/62
f 153/299/62 161/250/62 137/298/62
f 153/299/62 160/249/62 161/250/62
f 153/299/62 159/248/62 160/249/62
f 153/299/62 158/247/62 159/248/62
f 148/280/62 158/247/62 153/299/62
f 158/247/62 148/280/62 156/245/62
f 156/245/62 148/280/62 155/244/62

